<?xml version="1.0" standalone="no"?>
<svg viewBox="0 0 200 200" xmlns="http://www.w3.org/2000/svg">
  <path fill="#0F62FE" d="M47,-80.1C60.9,-73.4,72.2,-60.8,79,-46.4C85.9,-32.1,88.4,-16.1,87.3,-0.7C86.1,14.7,81.4,29.5,73.6,42.3C65.8,55,55.1,65.9,42.3,73.5C29.5,81,14.8,85.4,-0.2,85.8C-15.2,86.1,-30.4,82.6,-43.2,75C-56,67.4,-66.3,55.8,-73.8,42.7C-81.2,29.5,-85.8,14.8,-85.7,0C-85.7,-14.7,-81.2,-29.5,-74.1,-43.3C-67,-57.1,-57.4,-69.9,-44.6,-77.3C-31.9,-84.7,-15.9,-86.5,0.3,-87.1C16.6,-87.6,33.1,-86.8,47,-80.1Z" transform="translate(100 100)" />
</svg>
